REM DIRINDEX 1\2,1\4,1\3\5,1\3\6
REM DIRNAME folder01,folder02,folder03,folder04,folder05,folder06
TITLE ""
FILE "Track14.mp3" MP3
  TRACK 01 AUDIO
    TITLE "4:cjc035_0421"
    INDEX 01 00:00:00
  TRACK 02 AUDIO
    TITLE "5:cjc035_0422"
    INDEX 01 00:05:12
  TRACK 03 AUDIO
    TITLE "6:cjc035_0423"
    INDEX 01 00:06:45
  TRACK 04 AUDIO
    TITLE "5:cjc035_0424"
    INDEX 01 00:08:05
  TRACK 05 AUDIO
    TITLE "6:cjc035_0425"
    INDEX 01 00:09:44
  TRACK 06 AUDIO
    TITLE "5:cjc035_0426"
    INDEX 01 00:11:03
  TRACK 07 AUDIO
    TITLE "6:cjc035_0427"
    INDEX 01 00:12:38
  TRACK 08 AUDIO
    TITLE "5:cjc035_0428"
    INDEX 01 00:14:00
  TRACK 09 AUDIO
    TITLE "6:cjc035_0429"
    INDEX 01 00:15:40
  TRACK 10 AUDIO
    TITLE "5:cjc035_0430"
    INDEX 01 00:17:08
  TRACK 11 AUDIO
    TITLE "6:cjc035_0431"
    INDEX 01 00:18:50
  TRACK 12 AUDIO
    TITLE "5:cjc035_0432"
    INDEX 01 00:20:22
  TRACK 13 AUDIO
    TITLE "6:cjc035_0433"
    INDEX 01 00:21:70
  TRACK 14 AUDIO
    TITLE "5:cjc035_0434"
    INDEX 01 00:23:46
  TRACK 15 AUDIO
    TITLE "6:cjc035_0435"
    INDEX 01 00:25:09
  TRACK 16 AUDIO
    TITLE "5:cjc035_0436"
    INDEX 01 00:26:52
  TRACK 17 AUDIO
    TITLE "6:cjc035_0437"
    INDEX 01 00:28:19
  TRACK 18 AUDIO
    TITLE "5:cjc035_0438"
    INDEX 01 00:29:58
  TRACK 19 AUDIO
    TITLE "6:cjc035_0439"
    INDEX 01 00:31:27
  TRACK 20 AUDIO
    TITLE "5:cjc035_0440"
    INDEX 01 00:32:72
  TRACK 21 AUDIO
    TITLE "6:cjc035_0441"
    INDEX 01 00:34:43
  TRACK 22 AUDIO
    TITLE "5:cjc035_0442"
    INDEX 01 00:36:15
  TRACK 23 AUDIO
    TITLE "6:cjc035_0443"
    INDEX 01 00:37:63
  TRACK 24 AUDIO
    TITLE "5:cjc035_0444"
    INDEX 01 00:39:43
  TRACK 25 AUDIO
    TITLE "6:cjc035_0445"
    INDEX 01 00:41:10
  TRACK 26 AUDIO
    TITLE "5:cjc035_0446"
    INDEX 01 00:42:51
  TRACK 27 AUDIO
    TITLE "6:cjc035_0447"
    INDEX 01 00:44:24
  TRACK 28 AUDIO
    TITLE "5:cjc035_0448"
    INDEX 01 00:46:00
  TRACK 29 AUDIO
    TITLE "6:cjc035_0449"
    INDEX 01 00:47:54
  TRACK 30 AUDIO
    TITLE "5:cjc035_0450"
    INDEX 01 00:49:33
  TRACK 31 AUDIO
    TITLE "6:cjc035_0451"
    INDEX 01 00:51:01
  TRACK 32 AUDIO
    TITLE "5:cjc035_0452"
    INDEX 01 00:52:41
  TRACK 33 AUDIO
    TITLE "6:cjc035_0453"
    INDEX 01 00:54:17
  TRACK 34 AUDIO
    TITLE "5:cjc035_0454"
    INDEX 01 00:55:61
  TRACK 35 AUDIO
    TITLE "6:cjc035_0455"
    INDEX 01 00:57:39
  TRACK 36 AUDIO
    TITLE "5:cjc035_0456"
    INDEX 01 00:59:18
  TRACK 37 AUDIO
    TITLE "6:cjc035_0457"
    INDEX 01 01:00:62
  TRACK 38 AUDIO
    TITLE "5:cjc035_0458"
    INDEX 01 01:02:34
  TRACK 39 AUDIO
    TITLE "6:cjc035_0459"
    INDEX 01 01:04:03
  TRACK 40 AUDIO
    TITLE "5:cjc035_0460"
    INDEX 01 01:05:54
  TRACK 41 AUDIO
    TITLE "6:cjc035_0461"
    INDEX 01 01:07:19
  TRACK 42 AUDIO
    TITLE "5:cjc035_0462"
    INDEX 01 01:08:66
  TRACK 43 AUDIO
    TITLE "6:cjc035_0463"
    INDEX 01 01:10:33
  TRACK 44 AUDIO
    TITLE "5:cjc035_0464"
    INDEX 01 01:12:03
  TRACK 45 AUDIO
    TITLE "6:cjc035_0465"
    INDEX 01 01:13:49
  TRACK 46 AUDIO
    TITLE "5:cjc035_0466"
    INDEX 01 01:15:19
  TRACK 47 AUDIO
    TITLE "6:cjc035_0467"
    INDEX 01 01:16:69
  TRACK 48 AUDIO
    TITLE "5:cjc035_0468"
    INDEX 01 01:18:45
  TRACK 49 AUDIO
    TITLE "6:cjc035_0469"
    INDEX 01 01:20:28
  TRACK 50 AUDIO
    TITLE "5:cjc035_0470"
    INDEX 01 01:22:19
  TRACK 51 AUDIO
    TITLE "6:cjc035_0471"
    INDEX 01 01:23:63
  TRACK 52 AUDIO
    TITLE "5:cjc035_0472"
    INDEX 01 01:25:31
  TRACK 53 AUDIO
    TITLE "6:cjc035_0473"
    INDEX 01 01:26:70
  TRACK 54 AUDIO
    TITLE "5:cjc035_0474"
    INDEX 01 01:28:37
  TRACK 55 AUDIO
    TITLE "6:cjc035_0475"
    INDEX 01 01:30:05
  TRACK 56 AUDIO
    TITLE "5:cjc035_0476"
    INDEX 01 01:31:49
  TRACK 57 AUDIO
    TITLE "6:cjc035_0477"
    INDEX 01 01:33:21
  TRACK 58 AUDIO
    TITLE "5:cjc035_0478"
    INDEX 01 01:34:67
  TRACK 59 AUDIO
    TITLE "6:cjc035_0479"
    INDEX 01 01:36:45
  TRACK 60 AUDIO
    TITLE "5:cjc035_0480"
    INDEX 01 01:38:26
  TRACK 61 AUDIO
    TITLE "6:cjc035_0481"
    INDEX 01 01:39:74
  TRACK 62 AUDIO
    TITLE "5:cjc035_0482"
    INDEX 01 01:41:50
  TRACK 63 AUDIO
    TITLE "6:cjc035_0483"
    INDEX 01 01:43:09
  TRACK 64 AUDIO
    TITLE "5:cjc035_0484"
    INDEX 01 01:44:46
  TRACK 65 AUDIO
    TITLE "6:cjc035_0485"
    INDEX 01 01:46:19
  TRACK 66 AUDIO
    TITLE "5:cjc035_0486"
    INDEX 01 01:47:70
  TRACK 67 AUDIO
    TITLE "6:cjc035_0487"
    INDEX 01 01:49:37
  TRACK 68 AUDIO
    TITLE "5:cjc035_0488"
    INDEX 01 01:51:03
  TRACK 69 AUDIO
    TITLE "6:cjc035_0489"
    INDEX 01 01:52:57
  TRACK 70 AUDIO
    TITLE "5:cjc035_0490"
    INDEX 01 01:54:41
  TRACK 71 AUDIO
    TITLE "6:cjc035_0491"
    INDEX 01 01:56:06
  TRACK 72 AUDIO
    TITLE "0:"
    INDEX 01 01:57:43
